<svg id="bell" xmlns="http://www.w3.org/2000/svg" width="20.226" height="24.271" viewBox="0 0 20.226 24.271">
  <path id="Path_974" data-name="Path 974" d="M21.6,17.1a6.773,6.773,0,0,1-2.406-5.183V9.1a7.085,7.085,0,0,0-6.068-7V1.011a1.011,1.011,0,1,0-2.023,0V2.1a7.084,7.084,0,0,0-6.068,7v2.819a6.781,6.781,0,0,1-2.415,5.191A1.769,1.769,0,0,0,3.77,20.226H20.456A1.77,1.77,0,0,0,21.6,17.1Z" transform="translate(-2 0)" fill="#038b73"/>
  <path id="Path_975" data-name="Path 975" d="M12.041,24.034A3.8,3.8,0,0,0,15.757,21H8.326A3.8,3.8,0,0,0,12.041,24.034Z" transform="translate(-1.929 0.237)" fill="#038b73"/>
</svg>
