<svg id="email" xmlns="http://www.w3.org/2000/svg" width="21.055" height="15.002" viewBox="0 0 21.055 15.002">
  <path id="Path_1014" data-name="Path 1014" d="M166.339,48.877c0-.024.017-.047.015-.071L159.929,55l6.418,5.993c0-.043-.008-.086-.008-.13Z" transform="translate(-145.299 -47.368)" fill="#038b73"/>
  <path id="Path_1015" data-name="Path 1015" d="M23.652,126.9l-2.623,2.524a.686.686,0,0,1-.943.008l-2.616-2.438-6.46,6.226a1.488,1.488,0,0,0,.5.1H29.594a1.487,1.487,0,0,0,.722-.2Z" transform="translate(-10.003 -118.319)" fill="#038b73"/>
  <path id="Path_1016" data-name="Path 1016" d="M16.112,42.752l9.806-9.446a1.486,1.486,0,0,0-.757-.221H7.079a1.49,1.49,0,0,0-.949.354Z" transform="translate(-5.569 -33.085)" fill="#038b73"/>
  <path id="Path_1017" data-name="Path 1017" d="M0,52.1V63.853a1.492,1.492,0,0,0,.065.389L6.444,58.1Z" transform="translate(0 -50.361)" fill="#038b73"/>
</svg>
