<svg xmlns="http://www.w3.org/2000/svg" width="23.336" height="23.336" viewBox="0 0 23.336 23.336">
  <path id="faq" d="M11.668,0A11.668,11.668,0,1,0,23.336,11.668,11.681,11.681,0,0,0,11.668,0Zm0,18.475a.972.972,0,1,1,.972-.972A.973.973,0,0,1,11.668,18.475Zm1.539-6.182a.977.977,0,0,0-.567.884v.437a.972.972,0,1,1-1.945,0v-.437a2.93,2.93,0,0,1,1.7-2.651A3.178,3.178,0,0,0,14.1,8.265a2.431,2.431,0,1,0-4.862,0,.972.972,0,0,1-1.945,0,4.376,4.376,0,1,1,8.751,0,5.067,5.067,0,0,1-2.836,4.027Z" fill="#038b73"/>
</svg>
