<svg id="information-button" xmlns="http://www.w3.org/2000/svg" width="23.158" height="23.158" viewBox="0 0 23.158 23.158">
  <path id="Path_978" data-name="Path 978" d="M11.579,0a11.579,11.579,0,1,0,11.58,11.579A11.579,11.579,0,0,0,11.579,0Zm2.41,17.945q-.894.353-1.426.537a3.763,3.763,0,0,1-1.237.185,2.465,2.465,0,0,1-1.683-.528,1.7,1.7,0,0,1-.6-1.34,4.868,4.868,0,0,1,.044-.646c.03-.22.078-.467.144-.744l.746-2.635c.066-.253.123-.493.168-.717a3.177,3.177,0,0,0,.067-.62.956.956,0,0,0-.208-.7,1.18,1.18,0,0,0-.8-.2,2.092,2.092,0,0,0-.593.088c-.2.062-.375.118-.519.173l.2-.812q.732-.3,1.4-.511a4.141,4.141,0,0,1,1.265-.214,2.42,2.42,0,0,1,1.659.52,1.726,1.726,0,0,1,.582,1.349q0,.172-.04.6a4.047,4.047,0,0,1-.149.795l-.742,2.627c-.061.211-.115.452-.164.721a3.815,3.815,0,0,0-.072.614.881.881,0,0,0,.234.714,1.311,1.311,0,0,0,.811.19,2.351,2.351,0,0,0,.614-.1,3.489,3.489,0,0,0,.5-.167ZM13.858,7.282a1.771,1.771,0,0,1-1.25.482,1.789,1.789,0,0,1-1.255-.482,1.54,1.54,0,0,1-.522-1.169,1.555,1.555,0,0,1,.522-1.172,1.777,1.777,0,0,1,1.255-.487,1.757,1.757,0,0,1,1.25.487,1.579,1.579,0,0,1,0,2.342Z" transform="translate(0 0)" fill="#038b73"/>
</svg>
