<svg id="instagram" xmlns="http://www.w3.org/2000/svg" width="23.535" height="23.535" viewBox="0 0 23.535 23.535">
  <path id="Path_1009" data-name="Path 1009" d="M211.5,209.252A2.252,2.252,0,1,1,209.252,207,2.252,2.252,0,0,1,211.5,209.252Zm0,0" transform="translate(-197.485 -197.485)" fill="#828282"/>
  <path id="Path_1010" data-name="Path 1010" d="M146.292,137.043a2.238,2.238,0,0,0-1.282-1.282,3.738,3.738,0,0,0-1.255-.233c-.713-.033-.926-.04-2.731-.04s-2.018.007-2.731.039a3.741,3.741,0,0,0-1.255.233,2.239,2.239,0,0,0-1.283,1.282,3.74,3.74,0,0,0-.233,1.255c-.033.712-.04.926-.04,2.731s.007,2.018.04,2.731a3.739,3.739,0,0,0,.233,1.255,2.238,2.238,0,0,0,1.282,1.282,3.734,3.734,0,0,0,1.255.233c.712.032.926.039,2.73.039s2.018-.007,2.731-.039a3.734,3.734,0,0,0,1.255-.233,2.238,2.238,0,0,0,1.282-1.282,3.742,3.742,0,0,0,.233-1.255c.033-.713.039-.926.039-2.731s-.007-2.018-.039-2.731A3.734,3.734,0,0,0,146.292,137.043Zm-5.268,7.455a3.47,3.47,0,1,1,3.47-3.47A3.47,3.47,0,0,1,141.024,144.5Zm3.607-6.266a.811.811,0,1,1,.811-.811A.811.811,0,0,1,144.631,138.232Zm0,0" transform="translate(-129.257 -129.261)" fill="#828282"/>
  <path id="Path_1011" data-name="Path 1011" d="M11.768,0A11.768,11.768,0,1,0,23.535,11.768,11.769,11.769,0,0,0,11.768,0Zm6.716,14.553a4.958,4.958,0,0,1-.314,1.64,3.455,3.455,0,0,1-1.976,1.976,4.961,4.961,0,0,1-1.64.314c-.721.033-.951.041-2.786.041s-2.065-.008-2.786-.041a4.961,4.961,0,0,1-1.64-.314,3.455,3.455,0,0,1-1.976-1.976,4.956,4.956,0,0,1-.314-1.64c-.033-.721-.041-.951-.041-2.786s.008-2.065.041-2.786a4.958,4.958,0,0,1,.314-1.64A3.457,3.457,0,0,1,7.341,5.365a4.962,4.962,0,0,1,1.64-.314c.721-.033.951-.041,2.786-.041s2.065.008,2.786.041a4.963,4.963,0,0,1,1.64.314A3.456,3.456,0,0,1,18.17,7.341a4.957,4.957,0,0,1,.314,1.64c.033.721.041.951.041,2.786S18.517,13.833,18.484,14.553Zm0,0" fill="#828282"/>
</svg>
