<svg id="list" xmlns="http://www.w3.org/2000/svg" width="20.226" height="20.226" viewBox="0 0 20.226 20.226">
  <path id="Path_1002" data-name="Path 1002" d="M4.214,0H.843A.843.843,0,0,0,0,.843V4.214a.843.843,0,0,0,.843.843H4.214a.843.843,0,0,0,.843-.843V.843A.843.843,0,0,0,4.214,0Z" fill="#038b73"/>
  <path id="Path_1003" data-name="Path 1003" d="M20.641,0H8.843A.843.843,0,0,0,8,.843V4.214a.843.843,0,0,0,.843.843h11.8a.843.843,0,0,0,.843-.843V.843A.843.843,0,0,0,20.641,0Z" transform="translate(-1.258)" fill="#038b73"/>
  <path id="Path_1004" data-name="Path 1004" d="M4.214,9H.843A.843.843,0,0,0,0,9.843v3.371a.843.843,0,0,0,.843.843H4.214a.843.843,0,0,0,.843-.843V9.843A.843.843,0,0,0,4.214,9Z" transform="translate(0 -1.415)" fill="#038b73"/>
  <path id="Path_1005" data-name="Path 1005" d="M20.641,9H8.843A.843.843,0,0,0,8,9.843v3.371a.843.843,0,0,0,.843.843h11.8a.843.843,0,0,0,.843-.843V9.843A.843.843,0,0,0,20.641,9Z" transform="translate(-1.258 -1.415)" fill="#038b73"/>
  <path id="Path_1006" data-name="Path 1006" d="M4.214,18H.843A.843.843,0,0,0,0,18.843v3.371a.843.843,0,0,0,.843.843H4.214a.843.843,0,0,0,.843-.843V18.843A.843.843,0,0,0,4.214,18Z" transform="translate(0 -2.831)" fill="#038b73"/>
  <path id="Path_1007" data-name="Path 1007" d="M20.641,18H8.843A.843.843,0,0,0,8,18.843v3.371a.843.843,0,0,0,.843.843h11.8a.843.843,0,0,0,.843-.843V18.843A.843.843,0,0,0,20.641,18Z" transform="translate(-1.258 -2.831)" fill="#038b73"/>
</svg>
