<svg id="logout" xmlns="http://www.w3.org/2000/svg" width="23.325" height="22.803" viewBox="0 0 23.325 22.803">
  <path id="Path_995" data-name="Path 995" d="M16.338,6.446V2.514a1.143,1.143,0,0,0-1.14-1.14H1.14A1.143,1.143,0,0,0,0,2.514v16.11a1.16,1.16,0,0,0,.608,1.007l8.663,4.484a.575.575,0,0,0,.836-.513v-4.37H15.2a1.143,1.143,0,0,0,1.14-1.14V11.861h-2.28v4.522a.56.56,0,0,1-.57.57H10.126V7.283a1.16,1.16,0,0,0-.608-1.007L4.408,3.654h9.081a.56.56,0,0,1,.57.57V6.466h2.28Z" transform="translate(0 -1.374)" fill="#038b73"/>
  <path id="Path_996" data-name="Path 996" d="M68.9,16.7l3.7,3.7a1.137,1.137,0,0,1,0,1.653l-3.7,3.7a1.159,1.159,0,0,1-1.672.019,1.212,1.212,0,0,1,.038-1.672l1.672-1.653H62.461a1.124,1.124,0,0,1-.855-.38,1.29,1.29,0,0,1,.285-1.957,1.218,1.218,0,0,1,.57-.152H68.94s-1.653-1.653-1.672-1.653A1.15,1.15,0,1,1,68.9,16.7Z" transform="translate(-49.638 -13.492)" fill="#038b73"/>
</svg>
