<svg xmlns="http://www.w3.org/2000/svg" width="83" height="83" viewBox="0 0 83 83">
  <g id="Group_191" data-name="Group 191" transform="translate(-223 -292)">
    <text id="رمز_المسح" data-name="رمز المسح" transform="translate(223 365)" fill="#fff" font-size="18" font-family="Cairo-Bold, Cairo" font-weight="700"><tspan x="0" y="0">رمز المسح</tspan></text>
    <g id="qr-code" transform="translate(244.1 292)">
      <g id="Group_138" data-name="Group 138" transform="translate(-0.1)">
        <g id="Group_137" data-name="Group 137">
          <path id="Path_130" data-name="Path 130" d="M0,0V12.783H12.783V0ZM9.775,9.775H3.008V3.008H9.775Z" fill="#fff"/>
        </g>
      </g>
      <g id="Group_140" data-name="Group 140" transform="translate(4.36 4.753)">
        <g id="Group_139" data-name="Group 139" transform="translate(0 0)">
          <rect id="Rectangle_31" data-name="Rectangle 31" width="3" height="3" transform="translate(0.232 0.247)" fill="#fff"/>
        </g>
      </g>
      <g id="Group_142" data-name="Group 142" transform="translate(25.617)">
        <g id="Group_141" data-name="Group 141">
          <path id="Path_131" data-name="Path 131" d="M342,0V12.783h12.783V0Zm9.775,9.775h-6.768V3.008h6.768Z" transform="translate(-342)" fill="#fff"/>
        </g>
      </g>
      <g id="Group_144" data-name="Group 144" transform="translate(30.978 4.753)">
        <g id="Group_143" data-name="Group 143" transform="translate(0 0)">
          <rect id="Rectangle_32" data-name="Rectangle 32" width="3" height="3" transform="translate(-0.386 0.247)" fill="#fff"/>
        </g>
      </g>
      <g id="Group_146" data-name="Group 146" transform="translate(-0.1 25.717)">
        <g id="Group_145" data-name="Group 145">
          <path id="Path_132" data-name="Path 132" d="M0,342v12.783H12.783V342Zm9.775,9.775H3.008v-6.768H9.775Z" transform="translate(0 -342)" fill="#fff"/>
        </g>
      </g>
      <g id="Group_148" data-name="Group 148" transform="translate(4.36 30.42)">
        <g id="Group_147" data-name="Group 147" transform="translate(0 0)">
          <rect id="Rectangle_33" data-name="Rectangle 33" width="3" height="4" transform="translate(0.232 -0.42)" fill="#fff"/>
        </g>
      </g>
      <g id="Group_150" data-name="Group 150" transform="translate(2.459 15.21)">
        <g id="Group_149" data-name="Group 149" transform="translate(0 0)">
          <rect id="Rectangle_34" data-name="Rectangle 34" width="3" height="3" transform="translate(0.133 -0.21)" fill="#fff"/>
        </g>
      </g>
      <g id="Group_152" data-name="Group 152" transform="translate(5.916 17.821)">
        <g id="Group_151" data-name="Group 151">
          <path id="Path_133" data-name="Path 133" d="M83.008,240.008V237H80v3.008h2.933v3.008H85.94v-3.008Z" transform="translate(-80 -237)" fill="#fff"/>
        </g>
      </g>
      <g id="Group_154" data-name="Group 154" transform="translate(20.521 5.704)">
        <g id="Group_153" data-name="Group 153" transform="translate(0 0)">
          <rect id="Rectangle_35" data-name="Rectangle 35" width="3" height="3" transform="translate(0.071 0.296)" fill="#fff"/>
        </g>
      </g>
      <g id="Group_156" data-name="Group 156" transform="translate(14.817 2.852)">
        <g id="Group_155" data-name="Group 155" transform="translate(0 0)">
          <rect id="Rectangle_36" data-name="Rectangle 36" width="3" height="6" transform="translate(-0.225 0.148)" fill="#fff"/>
        </g>
      </g>
      <g id="Group_158" data-name="Group 158" transform="translate(17.669)">
        <g id="Group_157" data-name="Group 157" transform="translate(0)">
          <rect id="Rectangle_37" data-name="Rectangle 37" width="3" height="3" transform="translate(-0.077 0)" fill="#fff"/>
        </g>
      </g>
      <g id="Group_160" data-name="Group 160" transform="translate(14.939 8.798)">
        <g id="Group_159" data-name="Group 159">
          <path id="Path_134" data-name="Path 134" d="M203.008,117v3.008H200v3.008h6.016V117Z" transform="translate(-200 -117)" fill="#fff"/>
        </g>
      </g>
      <g id="Group_162" data-name="Group 162" transform="translate(14.939 17.821)">
        <g id="Group_161" data-name="Group 161">
          <path id="Path_135" data-name="Path 135" d="M206.016,245.873V242.94h-3.008V237H200v6.016h3.008v2.933h3.008v2.933h6.016v-3.008Z" transform="translate(-200 -237)" fill="#fff"/>
        </g>
      </g>
      <g id="Group_164" data-name="Group 164" transform="translate(20.521 15.21)">
        <g id="Group_163" data-name="Group 163" transform="translate(0 0)">
          <rect id="Rectangle_38" data-name="Rectangle 38" width="3" height="6" transform="translate(0.071 -0.21)" fill="#fff"/>
        </g>
      </g>
      <g id="Group_166" data-name="Group 166" transform="translate(26.97 14.813)">
        <g id="Group_165" data-name="Group 165">
          <path id="Path_136" data-name="Path 136" d="M368.422,199.933V197h-5.489v3.008H360v3.008h3.008v2.933h8.422v-6.016Zm0,3.008h-5.414v-2.933h5.414Z" transform="translate(-360 -197)" fill="#fff"/>
        </g>
      </g>
      <g id="Group_168" data-name="Group 168" transform="translate(35.731 27.568)">
        <g id="Group_167" data-name="Group 167" transform="translate(0 0)">
          <rect id="Rectangle_39" data-name="Rectangle 39" width="3" height="5" transform="translate(-0.139 0.432)" fill="#fff"/>
        </g>
      </g>
      <g id="Group_170" data-name="Group 170" transform="translate(23.373 20.914)">
        <g id="Group_169" data-name="Group 169" transform="translate(0 0)">
          <rect id="Rectangle_40" data-name="Rectangle 40" width="4" height="3" transform="translate(0.219 0.086)" fill="#fff"/>
        </g>
      </g>
      <g id="Group_172" data-name="Group 172" transform="translate(27.175 30.42)">
        <g id="Group_171" data-name="Group 171" transform="translate(0 0)">
          <rect id="Rectangle_41" data-name="Rectangle 41" width="2" height="3" transform="translate(0.417 -0.42)" fill="#fff"/>
        </g>
      </g>
      <g id="Group_174" data-name="Group 174" transform="translate(30.027 27.568)">
        <g id="Group_173" data-name="Group 173" transform="translate(0 0)">
          <rect id="Rectangle_42" data-name="Rectangle 42" width="3" height="2" transform="translate(-0.435 0.432)" fill="#fff"/>
        </g>
      </g>
      <g id="Group_176" data-name="Group 176" transform="translate(29.978 32.71)">
        <g id="Group_175" data-name="Group 175">
          <path id="Path_137" data-name="Path 137" d="M400,435v5.79h3.008v-2.782h2.406V435Z" transform="translate(-400 -435)" fill="#fff"/>
        </g>
      </g>
      <g id="Group_178" data-name="Group 178" transform="translate(14.817 27.568)">
        <g id="Group_177" data-name="Group 177" transform="translate(0 0)">
          <rect id="Rectangle_43" data-name="Rectangle 43" width="3" height="5" transform="translate(-0.225 0.432)" fill="#fff"/>
        </g>
      </g>
      <g id="Group_180" data-name="Group 180" transform="translate(17.947 32.484)">
        <g id="Group_179" data-name="Group 179">
          <path id="Path_138" data-name="Path 138" d="M246.016,435.008V432H240v6.016h3.008v-3.008h2.933v3.008h3.008v-3.008Z" transform="translate(-240 -432)" fill="#fff"/>
        </g>
      </g>
      <g id="Group_182" data-name="Group 182" transform="translate(8.163 15.21)">
        <g id="Group_181" data-name="Group 181" transform="translate(0 0)">
          <rect id="Rectangle_44" data-name="Rectangle 44" width="6" height="3" transform="translate(0.429 -0.21)" fill="#fff"/>
        </g>
      </g>
      <g id="Group_184" data-name="Group 184" transform="translate(0.558 18.062)">
        <g id="Group_183" data-name="Group 183" transform="translate(0 0)">
          <rect id="Rectangle_45" data-name="Rectangle 45" width="2" height="6" transform="translate(0.034 -0.062)" fill="#fff"/>
        </g>
      </g>
    </g>
  </g>
</svg>
