<svg id="phone-call" xmlns="http://www.w3.org/2000/svg" width="21.333" height="21.378" viewBox="0 0 21.333 21.378">
  <g id="Group_411" data-name="Group 411" transform="translate(0 0)">
    <path id="Path_1018" data-name="Path 1018" d="M21.313,15.689,18.33,12.706a1.984,1.984,0,0,0-3.3.746,2.03,2.03,0,0,1-2.344,1.279A9.2,9.2,0,0,1,7.142,9.19,1.931,1.931,0,0,1,8.42,6.846a1.984,1.984,0,0,0,.746-3.3L6.183.559a2.128,2.128,0,0,0-2.877,0L1.282,2.584C-.743,4.715,1.495,10.362,6.5,15.37s10.655,7.352,12.786,5.221l2.024-2.024A2.128,2.128,0,0,0,21.313,15.689Z" transform="translate(-0.539 0)" fill="#038b73"/>
  </g>
</svg>
