<svg id="secure" xmlns="http://www.w3.org/2000/svg" width="18.642" height="23.055" viewBox="0 0 18.642 23.055">
  <path id="Path_979" data-name="Path 979" d="M72.4,5.315l.839,1.259h6.8V.675A.676.676,0,0,0,79.364,0H65.675A.676.676,0,0,0,65,.675V4.413h5.719A2.022,2.022,0,0,1,72.4,5.315Zm4.978.043H74.276a.675.675,0,0,1,0-1.351h3.107a.675.675,0,1,1,0,1.351Zm-10.312-3.2a.675.675,0,0,1,.675-.675h9.636a.675.675,0,1,1,0,1.351H67.747A.675.675,0,0,1,67.071,2.161Z" transform="translate(-64.28)" fill="#038b73"/>
  <path id="Path_980" data-name="Path 980" d="M429.856,105H429v1.846h1.531v-1.171A.676.676,0,0,0,429.856,105Z" transform="translate(-411.889 -100.272)" fill="#038b73"/>
  <path id="Path_981" data-name="Path 981" d="M66.967,130.161H57.242L56,128.3a.675.675,0,0,0-.562-.3H49.675a.676.676,0,0,0-.675.675v8.691h4.013a2.738,2.738,0,0,1,.4-.533,4.908,4.908,0,0,1,9.813,0,2.734,2.734,0,0,1,.4.533h4.013v-6.529A.676.676,0,0,0,66.967,130.161Z" transform="translate(-49 -122.236)" fill="#038b73"/>
  <path id="Path_982" data-name="Path 982" d="M49,368.927a.676.676,0,0,0,.675.675h2.972V366H49Z" transform="translate(-49 -349.519)" fill="#038b73"/>
  <path id="Path_983" data-name="Path 983" d="M382,369.6h2.972a.676.676,0,0,0,.675-.675V366H382Z" transform="translate(-367.005 -349.519)" fill="#038b73"/>
  <path id="Path_984" data-name="Path 984" d="M167.88,252.1v-.539a3.557,3.557,0,1,0-7.115,0v.539a1.35,1.35,0,0,0-.766,1.218v5.223a1.351,1.351,0,0,0,1.351,1.351h5.944a1.351,1.351,0,0,0,1.351-1.351v-5.223A1.35,1.35,0,0,0,167.88,252.1ZM165,257.006a.675.675,0,1,1-1.351,0v-1.8a.675.675,0,1,1,1.351,0Zm1.531-5.043h-4.413v-.405a2.206,2.206,0,0,1,4.413,0Z" transform="translate(-155.002 -236.833)" fill="#038b73"/>
</svg>
