<svg id="XMLID_2_" xmlns="http://www.w3.org/2000/svg" width="21.124" height="23.733" viewBox="0 0 21.124 23.733">
  <g id="Group_405" data-name="Group 405" transform="translate(0)">
    <g id="Group_404" data-name="Group 404" transform="translate(0)">
      <path id="Path_976" data-name="Path 976" d="M42.535,281.186a5.161,5.161,0,0,1-4.178,2.132H35.95a1.923,1.923,0,0,1-1.808-1.267,6.1,6.1,0,0,1-.972-.384,6.547,6.547,0,0,1-1.816-1.344,7.753,7.753,0,0,0-6.08,7.569v.485a1.206,1.206,0,0,0,1.206,1.206H45.192a1.206,1.206,0,0,0,1.206-1.206v-.485A7.747,7.747,0,0,0,42.535,281.186Z" transform="translate(-25.274 -265.849)" fill="#038b73"/>
      <path id="Path_977" data-name="Path 977" d="M92.981,11.988a1.373,1.373,0,0,0,1.2-.711l.019.05.006.015a5.36,5.36,0,0,0,3.022,3.182,1.921,1.921,0,0,1,1.628-.9h2.407a1.347,1.347,0,0,0,.659-.177,2.72,2.72,0,0,0,.778-.9,6.94,6.94,0,0,0,.6-1.272,1.38,1.38,0,0,0,.38.437v.59a2.421,2.421,0,0,1-2.419,2.419H98.859a.824.824,0,0,0,0,1.648h2.407a4.071,4.071,0,0,0,4.067-4.067v-.59a1.371,1.371,0,0,0,.549-1.1V7.177a1.371,1.371,0,0,0-.57-1.114,6.588,6.588,0,0,0-13.133,0,1.371,1.371,0,0,0-.57,1.114v3.437A1.374,1.374,0,0,0,92.981,11.988Zm5.764-10.34A4.946,4.946,0,0,1,103.66,6.1a1.378,1.378,0,0,0-.386.477,4.7,4.7,0,0,0-9.056-.008l0,.008a1.378,1.378,0,0,0-.386-.477A4.947,4.947,0,0,1,98.745,1.648Z" transform="translate(-88.183)" fill="#038b73"/>
    </g>
  </g>
</svg>
