<svg id="translation" xmlns="http://www.w3.org/2000/svg" width="24.271" height="24.271" viewBox="0 0 24.271 24.271">
  <path id="Path_999" data-name="Path 999" d="M7.086,10.95l-.344,1.031a.711.711,0,1,1-1.349-.449L7.668,4.705a.711.711,0,0,1,1.349,0l1.166,3.5a9.652,9.652,0,0,1,6.162-1.917A8.3,8.3,0,1,0,6.286,16.345a9.643,9.643,0,0,1,1.4-5.395Z" transform="translate(0 0)" fill="#038b73"/>
  <path id="Path_1000" data-name="Path 1000" d="M171.108,162.831a8.276,8.276,0,1,0,8.276,8.276A8.276,8.276,0,0,0,171.108,162.831Zm-2.635,11.44a.711.711,0,0,1-.888-1.11c1.084-.867,1.481-2.822,1.593-4.043h-1.149a.711.711,0,1,1,0-1.422h1.9a.711.711,0,0,1,.711.711C170.635,168.575,170.611,172.56,168.472,174.271Zm5.623-3.257h-.806v3.46a.711.711,0,0,1-1.422,0v-6.826a.711.711,0,0,1,1.422,0v1.944h.806a.711.711,0,1,1,0,1.422Z" transform="translate(-155.113 -155.112)" fill="#038b73"/>
  <path id="Path_1001" data-name="Path 1001" d="M159.48,153.78h1.566l-.783-2.35Z" transform="translate(-151.92 -144.252)" fill="#038b73"/>
</svg>
