<svg xmlns="http://www.w3.org/2000/svg" width="21.332" height="24.271" viewBox="0 0 21.332 24.271">
  <g id="user" transform="translate(0 0)">
    <g id="Group_380" data-name="Group 380" transform="translate(4.266 0)">
      <g id="Group_379" data-name="Group 379">
        <path id="Path_952" data-name="Path 952" d="M127.4,0a6.4,6.4,0,1,0,6.4,6.4A6.407,6.407,0,0,0,127.4,0Z" transform="translate(-121)" fill="#038b73"/>
      </g>
    </g>
    <g id="Group_382" data-name="Group 382" transform="translate(0 14.221)">
      <g id="Group_381" data-name="Group 381">
        <path id="Path_953" data-name="Path 953" d="M49.628,302.759A9.123,9.123,0,0,0,43.088,300H40.244a9.123,9.123,0,0,0-6.54,2.759,9.326,9.326,0,0,0-2.7,6.58.711.711,0,0,0,.711.711h19.91a.711.711,0,0,0,.711-.711A9.326,9.326,0,0,0,49.628,302.759Z" transform="translate(-31 -300)" fill="#038b73"/>
      </g>
    </g>
  </g>
</svg>
